<svg xmlns="http://www.w3.org/2000/svg" viewBox="0 -0.5 48 36" shape-rendering="crispEdges">
<metadata>Made with Pixels to Svg https://codepen.io/shshaw/pen/XbxvNj</metadata>
<path stroke="#000000" d="M19 1h10M18 2h1M29 2h1M17 3h1M30 3h1M17 4h1M30 4h1M17 5h1M30 5h1M17 6h1M23 6h2M30 6h1M17 7h1M22 7h1M25 7h1M30 7h1M17 8h1M21 8h1M26 8h1M30 8h1M17 9h1M30 9h1M17 10h1M30 10h1M17 11h1M30 11h1M17 12h1M30 12h1M17 13h2M29 13h2M17 14h1M19 14h10M30 14h1M18 15h1M29 15h1M19 16h10M3 19h10M19 19h10M35 19h10M2 20h1M13 20h1M18 20h1M29 20h1M34 20h1M45 20h1M1 21h1M14 21h1M17 21h1M30 21h1M33 21h1M46 21h1M1 22h1M14 22h1M17 22h1M30 22h1M33 22h1M46 22h1M1 23h1M8 23h1M14 23h1M17 23h1M30 23h1M33 23h1M40 23h1M46 23h1M1 24h1M7 24h1M14 24h1M17 24h1M30 24h1M33 24h1M41 24h1M46 24h1M1 25h1M6 25h1M14 25h1M17 25h1M21 25h1M26 25h1M30 25h1M33 25h1M42 25h1M46 25h1M1 26h1M6 26h1M14 26h1M17 26h1M22 26h1M25 26h1M30 26h1M33 26h1M42 26h1M46 26h1M1 27h1M7 27h1M14 27h1M17 27h1M23 27h2M30 27h1M33 27h1M41 27h1M46 27h1M1 28h1M8 28h1M14 28h1M17 28h1M30 28h1M33 28h1M40 28h1M46 28h1M1 29h1M14 29h1M17 29h1M30 29h1M33 29h1M46 29h1M1 30h1M14 30h1M17 30h1M30 30h1M33 30h1M46 30h1M1 31h2M13 31h2M17 31h2M29 31h2M33 31h2M45 31h2M1 32h1M3 32h10M14 32h1M17 32h1M19 32h10M30 32h1M33 32h1M35 32h10M46 32h1M2 33h1M13 33h1M18 33h1M29 33h1M34 33h1M45 33h1M3 34h10M19 34h10M35 34h10" />
<path stroke="#f6f6f6" d="M19 2h10M18 3h12M18 4h12M18 5h12M18 6h5M25 6h5M18 7h4M23 7h2M26 7h4M18 8h3M22 8h4M27 8h3M18 9h12M18 10h12M18 11h12M18 12h12M19 13h10M3 20h10M19 20h10M35 20h10M2 21h12M18 21h12M34 21h12M2 22h12M18 22h12M34 22h12M2 23h6M9 23h5M18 23h12M34 23h6M41 23h5M2 24h5M8 24h6M18 24h12M34 24h7M42 24h4M2 25h4M7 25h7M18 25h3M22 25h4M27 25h3M34 25h8M43 25h3M2 26h4M7 26h7M18 26h4M23 26h2M26 26h4M34 26h8M43 26h3M2 27h5M8 27h6M18 27h5M25 27h5M34 27h7M42 27h4M2 28h6M9 28h5M18 28h12M34 28h6M41 28h5M2 29h12M18 29h12M34 29h12M2 30h12M18 30h12M34 30h12M3 31h10M19 31h10M35 31h10" />
<path stroke="#c2c2c2" d="M18 14h1M29 14h1M19 15h10M2 32h1M13 32h1M18 32h1M29 32h1M34 32h1M45 32h1M3 33h10M19 33h10M35 33h10" />
</svg>