<svg xmlns="http://www.w3.org/2000/svg" viewBox="0 -0.5 32 32" shape-rendering="crispEdges">
<metadata>Made with Pixels to Svg https://codepen.io/shshaw/pen/XbxvNj</metadata>
<path stroke="rgb(54,93,255)" d="M3 2h6M16 2h6M2 3h8M15 3h8M1 4h10M14 4h10M0 5h5M7 5h5M13 5h5M20 5h5M0 6h4M8 6h4M13 6h4M21 6h4M0 7h3M9 7h3M13 7h3M22 7h3M0 8h3M9 8h3M13 8h3M22 8h3M0 9h4M8 9h4M13 9h4M21 9h4M0 10h5M7 10h5M13 10h5M20 10h5M1 11h10M14 11h10M2 12h8M15 12h8M3 13h6M16 13h6M10 14h5M2 15h3M9 15h7M20 15h3M29 15h3M1 16h23M28 16h4M1 17h23M27 17h5M1 18h23M26 18h6M1 19h23M25 19h7M1 20h23M25 20h7M1 21h23M25 21h7M1 22h23M25 22h7M1 23h23M25 23h7M1 24h23M25 24h7M1 25h23M26 25h6M1 26h23M27 26h5M1 27h23M28 27h4M2 28h21M29 28h3M3 29h19" />
</svg>