<svg xmlns="http://www.w3.org/2000/svg" viewBox="0 -0.5 32 32" shape-rendering="crispEdges">
<metadata>Made with Pixels to Svg https://codepen.io/shshaw/pen/XbxvNj</metadata>
<path stroke="rgb(54,93,255)" d="M13 0h6M12 1h8M11 2h10M11 3h10M11 4h10M11 5h10M11 6h10M11 7h10M11 8h10M11 9h10M11 10h10M11 11h10M11 12h10M11 13h10M5 14h2M11 14h10M25 14h2M5 15h2M11 15h10M25 15h2M5 16h2M11 16h10M25 16h2M5 17h2M11 17h10M25 17h2M6 18h2M12 18h8M24 18h2M6 19h2M13 19h6M24 19h2M7 20h2M23 20h2M7 21h3M23 21h2M8 22h3M21 22h3M9 23h4M19 23h5M10 24h12M12 25h8M15 26h2M15 27h2M15 28h2M15 29h2M12 30h8M12 31h8" />
</svg>