<?xml version="1.0" encoding="UTF-8"?>
<svg id="Layer_1" data-name="Layer 1" xmlns="http://www.w3.org/2000/svg" version="1.1" viewBox="0 0 426 426">
  <defs>
    <style>
      .cls-1 {
        fill: #fff;
        stroke-width: 0px;
      }
    </style>
  </defs>
  <path class="cls-1" d="M266.3,74.5h-106.5c-2.8,0-5.5,1.1-7.5,3.1-2,2-3.1,4.7-3.1,7.5v106.5c0,2.8,1.1,5.5,3.1,7.5,2,2,4.7,3.1,7.5,3.1h106.5c2.8,0,5.5-1.1,7.5-3.1s3.1-4.7,3.1-7.5v-106.5c0-2.8-1.1-5.5-3.1-7.5-2-2-4.7-3.1-7.5-3.1ZM241.8,156.6c-4.2,4.2-10.9,4.2-15.1,0l-13.8-13.8-13.8,13.8c-4.2,4.1-10.8,4-15,0-4.1-4.1-4.2-10.8,0-15l21.3-21.3c4.2-4.2,10.9-4.2,15.1,0l21.3,21.3c4.2,4.2,4.2,10.9,0,15.1Z"/>
  <path class="cls-1" d="M266.3,223.7h-106.5c-2.8,0-5.5,1.1-7.5,3.1-2,2-3.1,4.7-3.1,7.5v106.5c0,2.8,1.1,5.5,3.1,7.5,2,2,4.7,3.1,7.5,3.1h106.5c2.8,0,5.5-1.1,7.5-3.1,2-2,3.1-4.7,3.1-7.5v-106.5c0-2.8-1.1-5.5-3.1-7.5s-4.7-3.1-7.5-3.1ZM241.8,284.4l-21.3,21.3c-4.2,4.2-10.9,4.2-15.1,0l-21.3-21.3c-4.1-4.2-4-10.8,0-15,4.1-4.1,10.8-4.2,15,0l13.8,13.8,13.8-13.8c4.2-4.1,10.8-4,15,0,4.1,4.1,4.2,10.8,0,15Z"/>
  <path class="cls-1" d="M117.1,223.7H10.7c-2.8,0-5.5,1.1-7.5,3.1C1.1,228.8,0,231.5,0,234.3v106.5C0,343.6,1.1,346.3,3.1,348.3s4.7,3.1,7.5,3.1h106.5c2.8,0,5.5-1.1,7.5-3.1s3.1-4.7,3.1-7.5v-106.5c0-2.8-1.1-5.5-3.1-7.5-2-2-4.7-3.1-7.5-3.1ZM82.1,301.3c2.7,2.7,3.8,6.6,2.9,10.3-1,3.7-3.9,6.6-7.6,7.6-3.7,1-7.7-.1-10.3-2.9l-21.3-21.3c-4.2-4.2-4.2-10.9,0-15.1l21.3-21.3c4.2-4.1,10.8-4,15,0s4.2,10.8,0,15l-13.8,13.8,13.8,13.8Z"/>
  <path class="cls-1" d="M415.4,223.7h-106.5c-2.8,0-5.5,1.1-7.5,3.1s-3.1,4.7-3.1,7.5v106.5c0,2.8,1.1,5.5,3.1,7.5,2,2,4.7,3.1,7.5,3.1h106.5c2.8,0,5.5-1.1,7.5-3.1,2-2,3.1-4.7,3.1-7.5v-106.5c0-2.8-1.1-5.5-3.1-7.5-2-2-4.7-3.1-7.5-3.1ZM380.3,295.1l-21.3,21.3c-4.2,4.1-10.8,4-15,0-4.1-4.1-4.2-10.8,0-15l13.8-13.8-13.8-13.8c-4.1-4.2-4-10.8,0-15,4.1-4.1,10.8-4.2,15,0l21.3,21.3c4.2,4.2,4.2,10.9,0,15.1Z"/>
</svg>