<?xml version="1.0" encoding="UTF-8"?>
<svg id="Layer_1" data-name="Layer 1" xmlns="http://www.w3.org/2000/svg" version="1.1" viewBox="0 0 32 32">
  <defs>
    <style>
      .cls-1 {
        fill: #fff;
        stroke-width: 0px;
      }
    </style>
  </defs>
  <g id="Mail_Box" data-name="Mail Box">
    <path class="cls-1" d="M17,2v5.1c1.2.4,2,1.6,2,2.8v2c0,1.7-1.3,3-3,3s-3-1.3-3-3v-2c0-1.3.8-2.4,2-2.8V2.1c-5.1.5-9,4.8-9,9.9v8c0,5.5,4.5,10,10,10s10-4.5,10-10v-8c0-5.1-3.9-9.4-9-10Z"/>
    <path class="cls-1" d="M15,12c0,.6.4,1,1,1s1-.4,1-1v-2c0-.6-.4-1-1-1s-1,.4-1,1v2Z"/>
  </g>
</svg>