<?xml version="1.0" encoding="UTF-8"?>
<svg id="Layer_1" data-name="Layer 1" xmlns="http://www.w3.org/2000/svg" version="1.1" viewBox="0 0 512 512">
  <defs>
    <style>
      .cls-1 {
        fill: #fff;
        stroke-width: 0px;
      }
    </style>
  </defs>
  <path class="cls-1" d="M437.9,94.9l-25.4,25.4c-3.1,3.1-8.2,3.1-11.3,0-3.1-3.1-3.1-8.2,0-11.3h0l11.8-11.8h-93.2c-4.4,0-8-3.6-8-8s3.6-8,8-8h93.2l-11.8-11.8c-3.1-3.1-3.1-8.2,0-11.3,3.1-3.1,8.2-3.1,11.3,0h0l25.4,25.4c3.1,3.1,3.1,8.2,0,11.3ZM382.5,230.5c-10.6-6.2-23.8-6.2-34.4-.1-.4.3-.9.5-1.3.8-.8-11.9-6.4-19.4-11.2-23.6-6.7-5.8-15.4-9-24.3-8.9h0c-10.1,0-20.3,4-27.1,11.7-6.9-8.5-17.5-12.8-28.1-12.8h0c-6.9,0-13.7,1.9-19.6,5.4v-113.7c0-19.7-15.8-35.6-35.5-35.6-19.7,0-35.6,15.9-35.6,35.6l-.2,187.8-19.7-26c-17.5-23.1-46.3-25.7-62.2-13.6-11.4,8.7-18.4,27.2-.6,50.7,29.2,38.5,39.1,66.6,47.8,91.3,7.1,20.2,13.2,37.6,28.1,54.6,13.2,15.1,19.5,32.1,19.4,52v17.9c-.2,4.4,3.4,8,7.8,8.1,0,0,0,0,0,0h153.7c4.4,0,8-3.6,8-8,0,0,0,0,0,0v-17.9c-.3-19.9,6.1-37,19.3-52.1,21.3-24.3,33-55.5,33-87.8v-83.2c0-14.3-6.2-26.1-17.2-32.5h0ZM143.5,154.9c4.4,0,8-3.6,8-8,0-2.1-.8-4.2-2.4-5.7-28.7-28.5-28.8-74.9-.2-103.6,28.5-28.7,74.9-28.8,103.6-.2,28.7,28.5,28.8,74.9.2,103.6,0,0-.1.1-.2.2-3.1,3.1-3.1,8.2,0,11.3s8.2,3.1,11.3,0c34.9-34.8,35-91.3.2-126.3-34.8-34.9-91.3-35-126.3-.2s-35,91.3-.2,126.3c0,0,.2.2.2.2,1.5,1.5,3.5,2.3,5.6,2.3Z"/>
</svg>